{"asset":{"version":"2.0","generator":"babylon.js glTF exporter for 3dsmax 2022 v20250127.3"},"scene":0,"scenes":[{"nodes":[0,1,2,3]}],"nodes":[{"mesh":0,"translation":[-0.826195,1.16994238,-3.26121163],"name":"Plane001-col"},{"mesh":1,"translation":[-0.826193333,1.16994452,11.6309958],"name":"Plane002-col"},{"mesh":2,"translation":[6.26045132,1.1699425,-3.2612114],"name":"Plane003-col"},{"mesh":3,"translation":[6.260453,1.16994464,11.6309958],"name":"Plane004-col"}],"meshes":[{"primitives":[{"attributes":{"POSITION":1,"NORMAL":2,"COLOR_0":3,"TEXCOORD_0":4},"indices":0,"material":0},{"attributes":{"POSITION":6,"NORMAL":7,"COLOR_0":8,"TEXCOORD_0":9},"indices":5,"material":1},{"attributes":{"POSITION":11,"NORMAL":12,"COLOR_0":13,"TEXCOORD_0":14},"indices":10,"material":2}],"name":"Plane001-col"},{"primitives":[{"attributes":{"POSITION":16,"NORMAL":17,"COLOR_0":18,"TEXCOORD_0":19},"indices":15,"material":0},{"attributes":{"POSITION":21,"NORMAL":22,"COLOR_0":23,"TEXCOORD_0":24},"indices":20,"material":1},{"attributes":{"POSITION":26,"NORMAL":27,"COLOR_0":28,"TEXCOORD_0":29},"indices":25,"material":2}],"name":"Plane002-col"},{"primitives":[{"attributes":{"POSITION":31,"NORMAL":32,"COLOR_0":33,"TEXCOORD_0":34},"indices":30,"material":0},{"attributes":{"POSITION":36,"NORMAL":37,"COLOR_0":38,"TEXCOORD_0":39},"indices":35,"material":1},{"attributes":{"POSITION":41,"NORMAL":42,"COLOR_0":43,"TEXCOORD_0":44},"indices":40,"material":2}],"name":"Plane003-col"},{"primitives":[{"attributes":{"POSITION":46,"NORMAL":47,"COLOR_0":48,"TEXCOORD_0":49},"indices":45,"material":0},{"attributes":{"POSITION":51,"NORMAL":52,"COLOR_0":53,"TEXCOORD_0":54},"indices":50,"material":1},{"attributes":{"POSITION":56,"NORMAL":57,"COLOR_0":58,"TEXCOORD_0":59},"indices":55,"material":2}],"name":"Plane004-col"}],"accessors":[{"bufferView":0,"componentType":5123,"count":672,"type":"SCALAR","name":"accessorIndices"},{"bufferView":1,"componentType":5126,"count":256,"max":[1.77366841,0.0101570152,7.44610357],"min":[-1.77366889,-0.0101570832,-7.44610357],"type":"VEC3","name":"accessorPositions"},{"bufferView":1,"byteOffset":3072,"componentType":5126,"count":256,"type":"VEC3","name":"accessorNormals"},{"bufferView":2,"componentType":5126,"count":256,"type":"VEC4","name":"accessorColors"},{"bufferView":3,"componentType":5126,"count":256,"type":"VEC2","name":"accessorUVs"},{"bufferView":0,"byteOffset":1344,"componentType":5123,"count":48,"type":"SCALAR","name":"accessorIndices"},{"bufferView":1,"byteOffset":6144,"componentType":5126,"count":246,"max":[1.77366841,0.0101570152,7.44610357],"min":[-1.77366889,-0.0101570832,-7.44610357],"type":"VEC3","name":"accessorPositions"},{"bufferView":1,"byteOffset":9096,"componentType":5126,"count":246,"type":"VEC3","name":"accessorNormals"},{"bufferView":2,"byteOffset":4096,"componentType":5126,"count":246,"type":"VEC4","name":"accessorColors"},{"bufferView":3,"byteOffset":2048,"componentType":5126,"count":246,"type":"VEC2","name":"accessorUVs"},{"bufferView":0,"byteOffset":1440,"componentType":5123,"count":288,"type":"SCALAR","name":"accessorIndices"},{"bufferView":1,"byteOffset":12048,"componentType":5126,"count":128,"max":[3.54332352,-0.0101549514,7.44610357],"min":[-3.54332352,-0.0101570832,-7.44610357],"type":"VEC3","name":"accessorPositions"},{"bufferView":1,"byteOffset":13584,"componentType":5126,"count":128,"type":"VEC3","name":"accessorNormals"},{"bufferView":2,"byteOffset":8032,"componentType":5126,"count":128,"type":"VEC4","name":"accessorColors"},{"bufferView":3,"byteOffset":4016,"componentType":5126,"count":128,"type":"VEC2","name":"accessorUVs"},{"bufferView":0,"byteOffset":2016,"componentType":5123,"count":672,"type":"SCALAR","name":"accessorIndices"},{"bufferView":1,"byteOffset":15120,"componentType":5126,"count":256,"max":[1.77366841,0.0101570152,7.44610357],"min":[-1.77366889,-0.0101570832,-7.44610357],"type":"VEC3","name":"accessorPositions"},{"bufferView":1,"byteOffset":18192,"componentType":5126,"count":256,"type":"VEC3","name":"accessorNormals"},{"bufferView":2,"byteOffset":10080,"componentType":5126,"count":256,"type":"VEC4","name":"accessorColors"},{"bufferView":3,"byteOffset":5040,"componentType":5126,"count":256,"type":"VEC2","name":"accessorUVs"},{"bufferView":0,"byteOffset":3360,"componentType":5123,"count":48,"type":"SCALAR","name":"accessorIndices"},{"bufferView":1,"byteOffset":21264,"componentType":5126,"count":246,"max":[1.77366841,0.0101570152,7.44610357],"min":[-1.77366889,-0.0101570832,-7.44610357],"type":"VEC3","name":"accessorPositions"},{"bufferView":1,"byteOffset":24216,"componentType":5126,"count":246,"type":"VEC3","name":"accessorNormals"},{"bufferView":2,"byteOffset":14176,"componentType":5126,"count":246,"type":"VEC4","name":"accessorColors"},{"bufferView":3,"byteOffset":7088,"componentType":5126,"count":246,"type":"VEC2","name":"accessorUVs"},{"bufferView":0,"byteOffset":3456,"componentType":5123,"count":288,"type":"SCALAR","name":"accessorIndices"},{"bufferView":1,"byteOffset":27168,"componentType":5126,"count":128,"max":[3.54332352,-0.0101549514,7.44610357],"min":[-3.54332352,-0.0101570832,-7.44610357],"type":"VEC3","name":"accessorPositions"},{"bufferView":1,"byteOffset":28704,"componentType":5126,"count":128,"type":"VEC3","name":"accessorNormals"},{"bufferView":2,"byteOffset":18112,"componentType":5126,"count":128,"type":"VEC4","name":"accessorColors"},{"bufferView":3,"byteOffset":9056,"componentType":5126,"count":128,"type":"VEC2","name":"accessorUVs"},{"bufferView":0,"byteOffset":4032,"componentType":5123,"count":672,"type":"SCALAR","name":"accessorIndices"},{"bufferView":1,"byteOffset":30240,"componentType":5126,"count":256,"max":[1.77366841,0.0101570152,7.44610357],"min":[-1.77366889,-0.0101570832,-7.44610357],"type":"VEC3","name":"accessorPositions"},{"bufferView":1,"byteOffset":33312,"componentType":5126,"count":256,"type":"VEC3","name":"accessorNormals"},{"bufferView":2,"byteOffset":20160,"componentType":5126,"count":256,"type":"VEC4","name":"accessorColors"},{"bufferView":3,"byteOffset":10080,"componentType":5126,"count":256,"type":"VEC2","name":"accessorUVs"},{"bufferView":0,"byteOffset":5376,"componentType":5123,"count":48,"type":"SCALAR","name":"accessorIndices"},{"bufferView":1,"byteOffset":36384,"componentType":5126,"count":246,"max":[1.77366841,0.0101570152,7.44610357],"min":[-1.77366889,-0.0101570832,-7.44610357],"type":"VEC3","name":"accessorPositions"},{"bufferView":1,"byteOffset":39336,"componentType":5126,"count":246,"type":"VEC3","name":"accessorNormals"},{"bufferView":2,"byteOffset":24256,"componentType":5126,"count":246,"type":"VEC4","name":"accessorColors"},{"bufferView":3,"byteOffset":12128,"componentType":5126,"count":246,"type":"VEC2","name":"accessorUVs"},{"bufferView":0,"byteOffset":5472,"componentType":5123,"count":288,"type":"SCALAR","name":"accessorIndices"},{"bufferView":1,"byteOffset":42288,"componentType":5126,"count":128,"max":[3.54332352,-0.0101549514,7.44610357],"min":[-3.54332352,-0.0101570832,-7.44610357],"type":"VEC3","name":"accessorPositions"},{"bufferView":1,"byteOffset":43824,"componentType":5126,"count":128,"type":"VEC3","name":"accessorNormals"},{"bufferView":2,"byteOffset":28192,"componentType":5126,"count":128,"type":"VEC4","name":"accessorColors"},{"bufferView":3,"byteOffset":14096,"componentType":5126,"count":128,"type":"VEC2","name":"accessorUVs"},{"bufferView":0,"byteOffset":6048,"componentType":5123,"count":672,"type":"SCALAR","name":"accessorIndices"},{"bufferView":1,"byteOffset":45360,"componentType":5126,"count":256,"max":[1.77366841,0.0101570152,7.44610357],"min":[-1.77366889,-0.0101570832,-7.44610357],"type":"VEC3","name":"accessorPositions"},{"bufferView":1,"byteOffset":48432,"componentType":5126,"count":256,"type":"VEC3","name":"accessorNormals"},{"bufferView":2,"byteOffset":30240,"componentType":5126,"count":256,"type":"VEC4","name":"accessorColors"},{"bufferView":3,"byteOffset":15120,"componentType":5126,"count":256,"type":"VEC2","name":"accessorUVs"},{"bufferView":0,"byteOffset":7392,"componentType":5123,"count":48,"type":"SCALAR","name":"accessorIndices"},{"bufferView":1,"byteOffset":51504,"componentType":5126,"count":246,"max":[1.77366841,0.0101570152,7.44610357],"min":[-1.77366889,-0.0101570832,-7.44610357],"type":"VEC3","name":"accessorPositions"},{"bufferView":1,"byteOffset":54456,"componentType":5126,"count":246,"type":"VEC3","name":"accessorNormals"},{"bufferView":2,"byteOffset":34336,"componentType":5126,"count":246,"type":"VEC4","name":"accessorColors"},{"bufferView":3,"byteOffset":17168,"componentType":5126,"count":246,"type":"VEC2","name":"accessorUVs"},{"bufferView":0,"byteOffset":7488,"componentType":5123,"count":288,"type":"SCALAR","name":"accessorIndices"},{"bufferView":1,"byteOffset":57408,"componentType":5126,"count":128,"max":[3.54332352,-0.0101549514,7.44610357],"min":[-3.54332352,-0.0101570832,-7.44610357],"type":"VEC3","name":"accessorPositions"},{"bufferView":1,"byteOffset":58944,"componentType":5126,"count":128,"type":"VEC3","name":"accessorNormals"},{"bufferView":2,"byteOffset":38272,"componentType":5126,"count":128,"type":"VEC4","name":"accessorColors"},{"bufferView":3,"byteOffset":19136,"componentType":5126,"count":128,"type":"VEC2","name":"accessorUVs"}],"bufferViews":[{"buffer":0,"byteLength":8064,"name":"bufferViewScalar"},{"buffer":0,"byteOffset":8064,"byteLength":60480,"byteStride":12,"name":"bufferViewFloatVec3"},{"buffer":0,"byteOffset":68544,"byteLength":40320,"byteStride":16,"name":"bufferViewFloatVec4"},{"buffer":0,"byteOffset":108864,"byteLength":20160,"byteStride":8,"name":"bufferViewFloatVec2"}],"buffers":[{"uri":"main.bin","byteLength":129024}],"materials":[{"pbrMetallicRoughness":{"baseColorTexture":{"index":0},"metallicFactor":0.0,"roughnessFactor":0.7022211},"name":"Material #98"},{"pbrMetallicRoughness":{"baseColorTexture":{"index":1},"metallicFactor":0.0,"roughnessFactor":0.7022211},"name":"Material #99"},{"pbrMetallicRoughness":{"baseColorTexture":{"index":2},"metallicFactor":0.0,"roughnessFactor":0.7022211},"name":"Material #111"}],"textures":[{"sampler":0,"source":0,"name":"road.png"},{"sampler":0,"source":1,"name":"road-marking.png"},{"sampler":0,"source":2,"name":"grass.png"}],"images":[{"uri":"road.png"},{"uri":"road-marking.png"},{"uri":"grass.png"}],"samplers":[{"magFilter":9729,"minFilter":9987}]}